{"title":"Die Hard 4.0 (2007) BRRip XviD AC3 Soup","uid":12228332,"size":1946872488,"categoryP":"video","categoryS":"hd___movies","magnet":"?xt=urn:btih:102e672900232edeb3fc2495288e07159bc40eca&amp;dn=Die+Hard+4.0+%282007%29+BRRip+XviD+AC3+Soup&amp;tr=udp%3A%2F%2Ftracker.openbittorrent.com%3A80&amp;tr=udp%3A%2F%2Fopen.demonii.com%3A1337&amp;tr=udp%3A%2F%2Ftracker.coppersurfer.tk%3A6969&amp;tr=udp%3A%2F%2Fexodus.desync.com%3A6969","seeders":12,"leechers":3,"uploader":"peaSoup","files":5,"time":1439514063,"description":" &lt;a href=&quot;http://i.imgur.com/BXWwlVC.jpg&quot; rel=&quot;nofollow&quot; target=&quot;_NEW&quot;&gt;http://i.imgur.com/BXWwlVC.jpg&lt;/a&gt;                                                           Storyline\n\nWhen someone hacks into the computers at the FBI's Cyber Crime Division; the Director decides to round up all the hackers who could have done this. When he's told that because it's the 4th of July most of their agents are not around so they might have trouble getting people to get the hackers. So he instructs them to get local PD'S to take care of it. And one of the cops they ask is John McClane who is tasked with bringing a hacker named Farrell to the FBI. But as soon as he gets there someone starts shooting at them. McClane manages to get them out but they're still being pursued. And it's just when McClane arrives in Washington that the whole system breaks down and chaos ensues.                                                                     &lt;a href=&quot; http://i.imgur.com/zBcqJ3I.png&quot; rel=&quot;nofollow&quot; target=&quot;_NEW&quot;&gt; http://i.imgur.com/zBcqJ3I.png&lt;/a&gt;                                                                  &lt;a href=&quot; http://i.imgur.com/T61W3FJ.png&quot; rel=&quot;nofollow&quot; target=&quot;_NEW&quot;&gt; http://i.imgur.com/T61W3FJ.png&lt;/a&gt;                                                                 &lt;a href=&quot; http://i.imgur.com/whTgw8t.png&quot; rel=&quot;nofollow&quot; target=&quot;_NEW&quot;&gt; http://i.imgur.com/whTgw8t.png&lt;/a&gt;                                                               &lt;a href=&quot; http://i.imgur.com/Cco4vBH.png&quot; rel=&quot;nofollow&quot; target=&quot;_NEW&quot;&gt; http://i.imgur.com/Cco4vBH.png&lt;/a&gt;                                                                 \nFormat                      : AVI\nFormat/Info                 : Audio Video Interleave\nFormat profile              : OpenDML\nFile size                   : 1.81 GiB\nDuration                    : 2h 8mn\nOverall bit rate            : 2 012 Kbps\nMovie name                  : Die Hard 4.0 (2007) BRRip XviD AC3 Soup\nWriting application         : Lavf56.9.100\nOriginal source form/Name   : DIE_HARD_4_0_F1\n\nVideo\nID                          : 0\nFormat                      : MPEG-4 Visual\nFormat profile              : Advanced Simple@L5\nFormat settings, BVOP       : 1\nFormat settings, QPel       : No\nFormat settings, GMC        : No warppoints\nFormat settings, Matrix     : Default (MPEG)\nMuxing mode                 : Packed bitstream\nCodec ID                    : XVID\nCodec ID/Hint               : XviD\nDuration                    : 2h 8mn\nBit rate                    : 1 553 Kbps\nWidth                       : 720 pixels\nHeight                      : 300 pixels\nDisplay aspect ratio        : 2.40:1\nFrame rate                  : 23.976 fps\nColor space                 : YUV\nChroma subsampling          : 4:2:0\nBit depth                   : 8 bits\nScan type                   : Progressive\nCompression mode            : Lossy\nBits/(Pixel*Frame)          : 0.300\nStream size                 : 1.40 GiB (77%)\nWriting library             : XviD 64\n\nAudio\nID                          : 1\nFormat                      : AC-3\nFormat/Info                 : Audio Coding 3\nMode extension              : CM (complete main)\nFormat settings, Endianness : Big\nCodec ID                    : 2000\nDuration                    : 2h 8mn\nBit rate mode               : Constant\nBit rate                    : 448 Kbps\nChannel(s)                  : 6 channels\nChannel positions           : Front: L C R, Side: L R, LFE\nSampling rate               : 48.0 KHz\nCompression mode            : Lossy\nStream size                 : 413 MiB (22%)\nAlignment                   : Aligned on interleaves\nInterleave, duration        : 32 ms (0.77 video frame)","torrent":{"xt":"urn:btih:102e672900232edeb3fc2495288e07159bc40eca","amp;dn":"Die+Hard+4.0+%282007%29+BRRip+XviD+AC3+Soup","amp;tr":["udp%3A%2F%2Ftracker.openbittorrent.com%3A80","udp%3A%2F%2Fopen.demonii.com%3A1337","udp%3A%2F%2Ftracker.coppersurfer.tk%3A6969","udp%3A%2F%2Fexodus.desync.com%3A6969"],"infoHash":"102e672900232edeb3fc2495288e07159bc40eca","infoHashBuffer":{"type":"Buffer","data":[16,46,103,41,0,35,46,222,179,252,36,149,40,142,7,21,155,196,14,202]},"announce":[],"urlList":[]}}